<svg width="188" height="60" viewBox="0 0 188 60" fill="none" xmlns="http://www.w3.org/2000/svg">
<path d="M82.1634 44.5067C83.2426 44.5067 84.24 44.2859 85.1557 43.8444C86.0714 43.3866 86.8236 42.7652 87.4123 41.9803C87.5896 41.7439 87.7439 41.4979 87.8752 41.2423C88.3975 40.2253 89.3003 39.3068 90.4435 39.3068V39.3068C91.7011 39.3068 92.7318 40.3834 92.305 41.5664C92.039 42.3036 91.659 43.0139 91.165 43.6973C90.1839 45.0381 88.9085 46.1255 87.3387 46.9594C85.7689 47.777 84.0438 48.1858 82.1634 48.1858C79.498 48.1858 77.2906 47.5808 75.5409 46.3708C73.7913 45.1444 72.4831 43.5256 71.6165 41.5143C70.7662 39.503 70.3411 37.3119 70.3411 34.9409V33.9107C70.3411 31.5234 70.7744 29.3322 71.641 27.3373C72.5077 25.3261 73.8158 23.7154 75.5654 22.5054C77.3151 21.279 79.5144 20.6658 82.1634 20.6658C84.24 20.6658 86.0551 21.091 87.6085 21.9413C89.1783 22.7752 90.4046 23.9198 91.2876 25.3751C91.7978 26.1914 92.1765 27.0709 92.4236 28.0135C92.7408 29.2238 91.7106 30.2806 90.4594 30.2806V30.2806C89.31 30.2806 88.3939 29.3699 87.9797 28.2978C87.8447 27.9486 87.6801 27.6121 87.4859 27.2883C86.9626 26.3889 86.2431 25.6776 85.3274 25.1544C84.4281 24.6148 83.3734 24.345 82.1634 24.345C80.3156 24.345 78.8603 24.8192 77.7975 25.7676C76.7509 26.716 76.0069 27.926 75.5654 29.3977C75.1403 30.853 74.9277 32.3573 74.9277 33.9107V34.9409C74.9277 36.4943 75.1403 38.0068 75.5654 39.4785C75.9906 40.9502 76.7264 42.1602 77.7729 43.1086C78.8358 44.0406 80.2993 44.5067 82.1634 44.5067Z" fill="#2563EB"/>
<path d="M102.84 45.4994C102.84 46.7121 101.857 47.6953 100.644 47.6953H100.449C99.2366 47.6953 98.2535 46.7121 98.2535 45.4994V12.2167C98.2535 11.004 99.2366 10.0208 100.449 10.0208H100.644C101.857 10.0208 102.84 11.004 102.84 12.2167V45.4994Z" fill="#2563EB"/>
<path d="M115.055 45.4994C115.055 46.7121 114.072 47.6953 112.859 47.6953H112.664C111.451 47.6953 110.468 46.7121 110.468 45.4994V23.3523C110.468 22.1395 111.451 21.1564 112.664 21.1564H112.859C114.072 21.1564 115.055 22.1395 115.055 23.3523V45.4994ZM110.125 14.0924C110.125 13.3729 110.346 12.7598 110.787 12.2529C111.245 11.746 111.915 11.4925 112.798 11.4925C113.681 11.4925 114.352 11.746 114.81 12.2529C115.284 12.7598 115.521 13.3729 115.521 14.0924C115.521 14.7956 115.284 15.4006 114.81 15.9075C114.352 16.398 113.681 16.6433 112.798 16.6433C111.915 16.6433 111.245 16.398 110.787 15.9075C110.346 15.4006 110.125 14.7956 110.125 14.0924Z" fill="#2563EB"/>
<path d="M133.328 48.1858C130.859 48.1858 128.709 47.638 126.877 46.5425C125.062 45.4305 123.648 43.9098 122.634 41.9803C121.636 40.0508 121.138 37.8433 121.138 35.3579V34.3032C121.138 31.4253 121.686 28.9725 122.781 26.9449C123.893 24.9009 125.332 23.3475 127.098 22.2846C128.88 21.2054 130.761 20.6658 132.739 20.6658C135.29 20.6658 137.367 21.2381 138.969 22.3828C140.588 23.511 141.774 25.0563 142.526 27.0185C143.294 28.9643 143.679 31.1718 143.679 33.6409V33.6409C143.679 34.7653 142.767 35.6767 141.643 35.6767H125.7C124.684 35.6767 123.86 34.8531 123.86 33.8372V33.8372C123.86 32.8212 124.684 31.9976 125.7 31.9976H138.749C138.938 31.9976 139.092 31.8438 139.092 31.6542V31.6542C139.027 30.4769 138.789 29.3322 138.381 28.2203C137.972 27.0921 137.318 26.1682 136.418 25.4487C135.519 24.7129 134.293 24.345 132.739 24.345C131.366 24.345 130.148 24.7374 129.085 25.5223C128.038 26.2908 127.212 27.4191 126.607 28.9071C126.019 30.3788 125.724 32.1775 125.724 34.3032V35.3579C125.724 37.0421 126.035 38.5792 126.656 39.9691C127.278 41.3426 128.177 42.4463 129.354 43.2803C130.532 44.0979 131.938 44.5067 133.573 44.5067C135.176 44.5067 136.533 44.1796 137.645 43.5256C138.248 43.1707 138.81 42.751 139.332 42.2663C140.074 41.5762 141.217 41.4096 142.016 42.0323V42.0323C142.762 42.6133 142.948 43.6798 142.312 44.3794C141.587 45.1771 140.701 45.9227 139.656 46.616C138.07 47.6625 135.961 48.1858 133.328 48.1858Z" fill="#2563EB"/>
<path d="M153.563 45.4994C153.563 46.7121 152.58 47.6953 151.367 47.6953H151.172C149.96 47.6953 148.977 46.7121 148.977 45.4994V23.3523C148.977 22.1395 149.981 21.1564 151.194 21.1564V21.1564C152.37 21.1564 153.358 22.0826 153.409 23.2573L153.563 26.8223V45.4994ZM151.497 33.3577C150.982 33.3379 150.574 32.9104 150.605 32.3958C150.731 30.3478 151.186 28.4981 151.969 26.8468C152.868 24.9336 154.119 23.4293 155.722 22.3337C157.34 21.2218 159.221 20.6658 161.363 20.6658C163.113 20.6658 164.617 20.9929 165.876 21.6469C167.152 22.2846 168.133 23.3066 168.819 24.7129C169.523 26.1191 169.874 27.9832 169.874 30.3052V45.4994C169.874 46.7121 168.891 47.6953 167.678 47.6953H167.483C166.271 47.6953 165.287 46.7121 165.287 45.4994V30.2561C165.287 28.8662 165.083 27.7461 164.674 26.8958C164.282 26.0455 163.693 25.4324 162.908 25.0563C162.123 24.6638 161.159 24.4676 160.014 24.4676C158.886 24.4676 157.864 24.7047 156.948 25.1789C156.032 25.6531 155.239 26.3072 154.569 27.1411C153.898 27.9751 153.383 28.9316 153.024 30.0108C152.765 30.7764 152.599 31.5758 152.526 32.4092C152.48 32.9464 152.036 33.3784 151.497 33.3577V33.3577Z" fill="#2563EB"/>
<path d="M187.902 22.8856C187.902 23.8406 187.128 24.6148 186.173 24.6148H175.258C174.303 24.6148 173.529 23.8406 173.529 22.8856V22.8856C173.529 21.9306 174.303 21.1564 175.258 21.1564H186.173C187.128 21.1564 187.902 21.9306 187.902 22.8856V22.8856ZM180.751 14.7056C181.964 14.7056 182.947 15.6887 182.947 16.9015V41.1219C182.947 42.0375 183.086 42.7243 183.364 43.1822C183.642 43.64 184.002 43.9425 184.444 44.0897C184.885 44.2369 185.359 44.3104 185.866 44.3104C186.242 44.3104 186.635 44.2777 187.043 44.2123V44.2123C187.521 44.1389 187.979 44.5058 187.982 44.9886L187.991 46.3552C187.996 47.1522 187.48 47.8583 186.695 47.9942C186.656 48.0009 186.617 48.0075 186.577 48.0141C186.005 48.1286 185.31 48.1858 184.493 48.1858C183.381 48.1858 182.359 47.9651 181.427 47.5236C180.495 47.0821 179.751 46.3462 179.195 45.3161C178.639 44.2696 178.361 42.8633 178.361 41.0973V16.9015C178.361 15.6887 179.344 14.7056 180.557 14.7056H180.751Z" fill="#2563EB"/>
<path d="M57.0823 26.8012C58.3158 26.6685 59.2168 25.5584 58.9914 24.3385C57.758 17.6629 54.2712 11.5846 49.0786 7.1423C43.3151 2.21153 35.8855 -0.331035 28.3094 0.0346091C20.7333 0.400253 13.5832 3.64648 8.32125 9.10937C3.05933 14.5723 0.0832692 21.839 0.00172106 29.4235C-0.0798271 37.008 2.7393 44.3371 7.88254 49.9118C13.0258 55.4866 20.1045 58.8858 27.671 59.4143C35.2375 59.9427 42.72 57.5605 48.5882 52.7548C53.8751 48.4252 57.4918 42.4232 58.8684 35.7758C59.12 34.5609 58.2431 33.4318 57.0128 33.2725V33.2725C55.7824 33.1133 54.6659 33.985 54.3981 35.1964C53.1793 40.7075 50.1419 45.6755 45.7417 49.2789C40.7599 53.3588 34.4076 55.3812 27.984 54.9325C21.5604 54.4839 15.5509 51.5981 11.1846 46.8654C6.81821 42.1327 4.42491 35.9107 4.49414 29.4718C4.56337 23.033 7.0899 16.8638 11.557 12.2261C16.0241 7.58836 22.0943 4.83248 28.526 4.52206C34.9578 4.21165 41.2651 6.37016 46.1581 10.5561C50.4797 14.2534 53.4096 19.2855 54.5096 24.8216C54.7514 26.0384 55.8488 26.9339 57.0823 26.8012V26.8012Z" fill="#2563EB"/>
<path d="M44.8463 28.2761C46.3779 28.1177 47.5123 26.7381 47.1206 25.249C46.2001 21.7504 44.2441 18.5856 41.4782 16.1883C38.0055 13.1782 33.5166 11.6038 28.9245 11.7853C24.3324 11.9667 19.9818 13.8903 16.7574 17.165C13.5329 20.4396 11.6767 24.8194 11.5663 29.4138C11.4558 34.0082 13.0993 38.4721 16.1626 41.898C19.226 45.3238 23.4791 47.4543 28.0572 47.8563C32.6353 48.2582 37.1946 46.9014 40.808 44.0618C43.6859 41.8001 45.7918 38.733 46.8793 35.2827C47.3422 33.8142 46.2754 32.3816 44.7531 32.1498C43.2309 31.918 41.8373 32.9839 41.2745 34.4171C40.4677 36.472 39.1243 38.293 37.3625 39.6775C34.8637 41.6412 31.7108 42.5795 28.5449 42.3015C25.3789 42.0236 22.4377 40.5502 20.3193 38.1811C18.2009 35.812 17.0644 32.725 17.1408 29.5479C17.2172 26.3707 18.5008 23.3419 20.7306 21.0773C22.9604 18.8128 25.9691 17.4825 29.1447 17.3571C32.3203 17.2316 35.4245 18.3203 37.826 20.4019C39.5192 21.8695 40.7735 23.7529 41.4807 25.8442C41.9739 27.3028 43.3146 28.4344 44.8463 28.2761Z" fill="#2563EB"/>
<rect x="29.3479" y="32.121" width="16.6835" height="3.85248" rx="1.62377" fill="#2563EB"/>
</svg>
